#!OML:ASF F:\VICON\USERDATA\INSTALL\rory3\rory3.ASF
:FULLY-SPECIFIED
:DEGREES
45
root 0.1485666767067907 18.578238847798502 12.146875839160572 0.436981297292918 5.037550729094306 -3.0304913671128606
lfemur -23.123464630807483 1.4476617354802326 -17.266126375154105
ltibia 44.60175833136834
lfoot 12.645684313804205 -3.7387643204271384
ltoes -4.735863891272139
rfemur -3.1459645511555454 5.138618049783042 31.60987763547024
rtibia 36.80517936949243
rfoot -10.43338427746292 -5.650335011808563
rtoes 7.9845501926226286
lowerback 11.200076690792232 -0.23098537082195097 2.759238946428783
upperback -0.8948107089594561 -0.12142907299347372 1.7764228652909133
thorax -6.607893082138341 -0.1873813197899198 0.4778379593667599
lowerneck -16.373011350755725 -2.830963237869125 -3.3069054840313834
upperneck 19.323060929098038 -3.092148806487551 1.5212897116357595
head 8.853072083948422 -1.5152363180840984 0.7169922798844668
lclavicle -1.6724071666331884e-15 -3.5899224690057356e-15
lhumerus -41.04946862772998 -8.602153546686667 90.20027164968633
lradius 74.92048804301494
lwrist 21.814271648813644
lhand -31.53545578345751 10.64170838750054
lfingers 7.125019999999999
lthumb -4.645105014644699 40.89387008807993
rclavicle -1.6779047066877338e-15 -3.5937903961196755e-15
rhumerus -40.75118368537757 -8.611252309369284 -83.57248397962613
rradius 60.396868638784696
rwrist 1.885924351903336
rhand -18.13619662343557 27.9642966124312
rfingers 7.125019999999999
rthumb 7.476856335459511 -1.2164610052878253
46
root 0.13541210779015925 18.410988329100043 12.87969596739051 -0.47642231455600426 5.1517439067664 -2.6680561540775583
lfemur -24.2501586371624 1.1542606340045591 -17.209692232658586
ltibia 38.31185688956997
lfoot 9.76412170196705 -0.753765278860846
ltoes -5.778850817537087
rfemur -2.2005639980227034 4.762289805974782 31.04184451505807
rtibia 40.7530474937017
rfoot -13.539461642873352 -6.624974661002875
rtoes 6.569619071399503
lowerback 12.27060577879957 -0.08402274137920296 2.5029846614764484
upperback -0.5992918528425275 0.12716351171253315 1.577740052601274
thorax -7.009132679812506 -0.04528033882005683 0.5168130749844898
lowerneck -16.373114670401897 -2.8715111238696718 -3.3108638056448303
upperneck 19.101150218150746 -3.1232002776789134 1.5595012909842105
head 8.71536919395677 -1.5385562593429105 0.7652911924395582
lclavicle -1.6736445908509676e-15 -3.590801181810794e-15
lhumerus -41.58883671228264 -8.408486490440632 90.49403060178703
lradius 73.26803181439692
lwrist 22.744772977679848
lhand -31.82646459989501 10.219757892454227
lfingers 7.125019999999999
lthumb -5.132340105504558 40.455418853363234
rclavicle -1.6799884614434995e-15 -3.595263717360146e-15
rhumerus -40.12090818459749 -8.709886102865052 -83.84039551518227
rradius 61.00461042448485
rwrist 1.4461496201086206
rhand -18.46953169747064 27.842884724650116
rfingers 7.125019999999999
rthumb 7.491073851019535 -1.1495892250861925
47
root 0.11215054182831016 18.269660465489217 14.049245210240219 -1.3923781502435482 2.16295801253807 -2.9303845145829035
lfemur -24.219706475484298 2.3448496861169064 -15.930721584841834
ltibia 34.94614019342103
lfoot 6.392171514734924 0.20788970064277557
ltoes -4.180136099618797
rfemur -1.5499924559910507 7.1362402556775155 31.168671051618812
rtibia 45.74592345726067
rfoot -15.498450081672065 -7.233218117252693
rtoes 7.904089943640832
lowerback 13.182027443558017 0.9106335265235652 2.3589144720175472
upperback -0.10495363966469035 1.4857646464327334 1.5576144822816183
thorax -7.094071035239712 0.6509467890404433 0.4418651179137059
lowerneck -16.436480447417104 -2.9705166407813697 -3.2633012796650798
upperneck 19.245974495665102 -3.2633003627989017 1.538710565159049
head 8.720528255994543 -1.6066506476542906 0.7653058883681509
lclavicle -1.6737177361660505e-15 -3.590855599388621e-15
lhumerus -42.11398293255574 -8.136941208632297 90.74474610909878
lradius 71.2929072982217
lwrist 22.55410979216347
lhand -31.933466931823244 10.14164953969046
lfingers 7.125019999999999
lthumb -5.114926373912696 40.31675006016618
rclavicle -1.6808141914149441e-15 -3.5958476145873815e-15
rhumerus -39.565316709100294 -9.029978481735094 -84.22211672544591
rradius 61.30124556286523
rwrist 1.2061772704109242
rhand -18.622882308636584 28.057646734664296
rfingers 7.125019999999999
rthumb 7.542551366732052 -1.1077682987642719
48
root 0.17129432514969883 18.156060365381897 15.417188816783435 -1.9953106184929321 2.162483405683414 0.07952176946432177
lfemur -23.943137857190685 0.05594443867345689 -18.701921039833
ltibia 33.37298404295759
lfoot 3.4687384202389877 0.4226649010637642
ltoes -1.3263920092370745
rfemur -2.1861928707960807 6.488691913914835 27.785773445848008
rtibia 52.95667727812666
rfoot -16.70317785369673 -7.622252678805085
rtoes 7.776764835276745
lowerback 13.141003305740737 1.0514199410929443 0.026146784508351617
upperback 0.2627704409157137 1.284436791653532 0.6496369273011573
thorax -6.903852534472591 0.5793948325146149 0.8175817431319666
lowerneck -16.67624106191983 -3.047204401683445 -3.16849553566882
upperneck 19.32291422461443 -3.437981657288534 1.73176465255735
head 8.686914120878184 -1.681402051981756 0.8220344195399294
lclavicle -1.670983628577361e-15 -3.588920439587542e-15
lhumerus -42.47327044542071 -7.693933637740793 90.86865631248376
lradius 69.24653675203163
lwrist 22.222875221682585
lhand -31.825307718904934 10.756649631251419
lfingers 7.125019999999999
lthumb -5.201780926961336 40.692447901663776
rclavicle -1.6813572862556264e-15 -3.596231576301633e-15
rhumerus -38.96201632119067 -9.057815992852065 -84.75210102904786
rradius 61.30191466212854
rwrist 1.1718801275209305
rhand -18.752205843070154 27.86975025762749
rfingers 7.125019999999999
rthumb 7.4526716299000135 -1.380278507533809
